<svg width="3205" height="1431" xmlns="http://www.w3.org/2000/svg" xmlns:xlink="http://www.w3.org/1999/xlink" xml:space="preserve" overflow="hidden"><defs><clipPath id="clip0"><rect x="40" y="133" width="3205" height="1431"/></clipPath></defs><g clip-path="url(#clip0)" transform="translate(-40 -133)"><text font-family="Arial,Arial_MSFontService,sans-serif" font-weight="400" font-size="55" transform="matrix(1 0 0 1 1115.83 963)">+ standard </text><text font-family="Arial,Arial_MSFontService,sans-serif" font-weight="400" font-size="55" transform="matrix(1 0 0 1 1080.3 1029)">nomenclature</text><path d="M1073 713.834C1073 695.7 1087.7 681 1105.83 681L1386.17 681C1404.3 681 1419 695.7 1419 713.834L1419 845.166C1419 863.3 1404.3 878 1386.17 878L1105.83 878C1087.7 878 1073 863.3 1073 845.166Z" fill="#0086A1" fill-rule="evenodd"/><text font-family="Arial,Arial_MSFontService,sans-serif" font-weight="700" font-size="64" transform="matrix(1 0 0 1 1118.12 803)">NavData</text><path d="M933.149 295.015 1069.1 757.062 1065.81 758.032 929.851 295.985ZM1079.35 749.269 1073.92 779.532 1052.97 757.032Z"/><path d="M932.368 695.016 1055.01 766.739 1053.27 769.706 930.632 697.984ZM1057.13 754.04 1073.92 779.792 1043.24 777.778Z"/><path d="M1.56815-0.703557 134.612 295.836 131.475 297.243-1.56815 0.703557ZM143.712 286.729 142.424 317.448 118.622 297.986Z" transform="matrix(1 0 0 -1 931.5 1096.95)"/><path d="M1.63898-0.51755 137.162 428.658 133.884 429.693-1.63898 0.51755ZM147.255 420.664 142.424 451.028 121.031 428.945Z" transform="matrix(1 0 0 -1 931.5 1230.53)"/><path d="M1.66991-0.406828 138.669 561.935 135.33 562.749-1.66991 0.406828ZM149.274 554.635 142.424 584.608 122.556 561.144Z" transform="matrix(1 0 0 -1 931.5 1364.11)"/><path d="M1.46626-0.896764 131.933 212.424 129.001 214.218-1.46626 0.896764ZM139.806 202.237 142.424 232.871 116.346 216.585Z" transform="matrix(1 0 0 -1 1419.5 779.371)"/><path d="M1.05751-1.35491 125.416 95.7073 123.301 98.4171-1.05751 1.35491ZM129.206 83.403 142.424 111.162 112.285 105.082Z" transform="matrix(1 0 0 -1 1419.5 779.663)"/><path d="M1419.63 777.786 1539.2 786.64 1538.94 790.068 1419.37 781.214ZM1535.51 774.303 1561.92 790.047 1533.48 801.728Z"/><path d="M1420.85 778.44 1549.14 942.156 1546.44 944.277 1418.15 780.56ZM1555.79 931.128 1561.92 961.255 1534.14 948.09Z"/><path d="M1562 635.5C1562 626.388 1569.39 619 1578.5 619L2271.5 619C2280.61 619 2288 626.388 2288 635.5L2288 701.5C2288 710.613 2280.61 718 2271.5 718L1578.5 718C1569.39 718 1562 710.613 1562 701.5Z" fill="#90CCC6" fill-rule="evenodd"/><text font-family="Arial,Arial_MSFontService,sans-serif" font-weight="400" font-size="55" transform="matrix(1 0 0 1 1639.77 688)">Extended Kalman Filter</text><path d="M1562 756.5C1562 747.388 1569.39 740 1578.5 740L2271.5 740C2280.61 740 2288 747.388 2288 756.5L2288 822.5C2288 831.613 2280.61 839 2271.5 839L1578.5 839C1569.39 839 1562 831.613 1562 822.5Z" fill="#49A198" fill-rule="evenodd"/><text fill="#FFFFFF" font-family="Arial,Arial_MSFontService,sans-serif" font-weight="400" font-size="55" transform="matrix(1 0 0 1 1661.83 810)">Residual Calculations</text><path d="M1562 513.5C1562 504.387 1569.39 497 1578.5 497L2271.5 497C2280.61 497 2288 504.387 2288 513.5L2288 579.5C2288 588.613 2280.61 596 2271.5 596L1578.5 596C1569.39 596 1562 588.613 1562 579.5Z" fill="#CDE9E6" fill-rule="evenodd"/><text font-family="Arial,Arial_MSFontService,sans-serif" font-weight="400" font-size="55" transform="matrix(1 0 0 1 1625.08 566)">Weighted Least Squares</text><path d="M1562 895C1562 876.775 1576.77 862 1595 862L2255 862C2273.23 862 2288 876.775 2288 895L2288 1027C2288 1045.23 2273.23 1060 2255 1060L1595 1060C1576.77 1060 1562 1045.23 1562 1027Z" fill="#3D8780" fill-rule="evenodd"/><text fill="#FFFFFF" font-family="Arial,Arial_MSFontService,sans-serif" font-weight="400" font-size="55" transform="matrix(1 0 0 1 1687.04 948)">Fault Detection and </text><text fill="#FFFFFF" font-family="Arial,Arial_MSFontService,sans-serif" font-weight="400" font-size="55" transform="matrix(1 0 0 1 1807.65 1014)">Exclusion</text><text font-family="Arial,Arial_MSFontService,sans-serif" font-weight="700" font-size="64" transform="matrix(1 0 0 1 1755.79 442)">Algorithms</text><path d="M933.092 428.853 1066.89 758.074 1063.7 759.368 929.908 430.147ZM1076.31 749.298 1073.92 779.952 1050.83 759.652Z"/><path d="M932.937 561.556 1062.78 759.273 1059.91 761.16 930.063 563.443ZM1070.32 748.838 1073.92 779.372 1047.34 763.933Z"/><path d="M0.572246-1.62069 121.387 41.0375 120.242 44.2789-0.572246 1.62069ZM121.071 28.1667 142.424 50.2882 111.915 54.0978Z" transform="matrix(1 0 0 -1 931.5 829.788)"/><path d="M2365 284.5C2365 275.387 2372.39 268 2381.5 268L3228.5 268C3237.61 268 3245 275.387 3245 284.5L3245 350.5C3245 359.613 3237.61 367 3228.5 367L2381.5 367C2372.39 367 2365 359.613 2365 350.5Z" fill="#C1C793" fill-rule="evenodd"/><text font-family="Arial,Arial_MSFontService,sans-serif" font-weight="400" font-size="55" transform="matrix(1 0 0 1 2571.4 337)">Trajectory Mapping</text><path d="M2365 402.5C2365 393.387 2372.39 386 2381.5 386L3228.5 386C3237.61 386 3245 393.387 3245 402.5L3245 468.5C3245 477.613 3237.61 485 3228.5 485L2381.5 485C2372.39 485 2365 477.613 2365 468.5Z" fill="#AEB672" fill-rule="evenodd"/><text font-family="Arial,Arial_MSFontService,sans-serif" font-weight="400" font-size="55" transform="matrix(1 0 0 1 2447.2 456)">Metrics by Constellation Type</text><path d="M2365 521.5C2365 512.387 2372.39 505 2381.5 505L3228.5 505C3237.61 505 3245 512.387 3245 521.5L3245 587.5C3245 596.613 3237.61 604 3228.5 604L2381.5 604C2372.39 604 2365 596.613 2365 587.5Z" fill="#96A053" fill-rule="evenodd"/><text fill="#FFFFFF" font-family="Arial,Arial_MSFontService,sans-serif" font-weight="400" font-size="55" transform="matrix(1 0 0 1 2715.04 575)">Skyplot</text><text font-family="Arial,Arial_MSFontService,sans-serif" font-weight="700" font-size="64" transform="matrix(1 0 0 1 2592.45 215)">Visualizations</text><path d="M2365 890.5C2365 881.388 2372.39 874 2381.5 874L3228.5 874C3237.61 874 3245 881.388 3245 890.5L3245 956.5C3245 965.613 3237.61 973 3228.5 973L2381.5 973C2372.39 973 2365 965.613 2365 956.5Z" fill="#B88CBA" fill-rule="evenodd"/><text font-family="Arial,Arial_MSFontService,sans-serif" font-weight="400" font-size="55" transform="matrix(1 0 0 1 2526.06 943)">Coordinate Transforms</text><path d="M2365 1127.5C2365 1118.39 2372.39 1111 2381.5 1111L3228.5 1111C3237.61 1111 3245 1118.39 3245 1127.5L3245 1193.5C3245 1202.61 3237.61 1210 3228.5 1210L2381.5 1210C2372.39 1210 2365 1202.61 2365 1193.5Z" fill="#995E9C" fill-rule="evenodd"/><text font-family="Arial,Arial_MSFontService,sans-serif" font-weight="400" font-size="55" transform="matrix(1 0 0 1 2520.54 1181)">Ephemeris Downloader</text><path d="M2365 1464.5C2365 1455.39 2372.39 1448 2381.5 1448L3228.5 1448C3237.61 1448 3245 1455.39 3245 1464.5L3245 1530.5C3245 1539.61 3237.61 1547 3228.5 1547L2381.5 1547C2372.39 1547 2365 1539.61 2365 1530.5Z" fill="#421447" fill-rule="evenodd"/><text fill="#FFFFFF" font-family="Arial,Arial_MSFontService,sans-serif" font-weight="400" font-size="55" transform="matrix(1 0 0 1 2423.71 1518)">Simulate GNSS Measurements</text><path d="M2365 771.5C2365 762.387 2372.39 755 2381.5 755L3228.5 755C3237.61 755 3245 762.387 3245 771.5L3245 837.5C3245 846.612 3237.61 854 3228.5 854L2381.5 854C2372.39 854 2365 846.612 2365 837.5Z" fill="#D9C0DA" fill-rule="evenodd"/><text font-family="Arial,Arial_MSFontService,sans-serif" font-weight="400" font-size="55" transform="matrix(1 0 0 1 2585.15 824)">Time Conversions</text><text font-family="Arial,Arial_MSFontService,sans-serif" font-weight="700" font-size="64" transform="matrix(1 0 0 1 2524.55 703)">Additional Utilities</text><path d="M2365 1263C2365 1244.78 2379.78 1230 2398 1230L3212 1230C3230.23 1230 3245 1244.78 3245 1263L3245 1395C3245 1413.22 3230.23 1428 3212 1428L2398 1428C2379.78 1428 2365 1413.22 2365 1395Z" fill="#734675" fill-rule="evenodd"/><text fill="#FFFFFF" font-family="Arial,Arial_MSFontService,sans-serif" font-weight="400" font-size="55" transform="matrix(1 0 0 1 2492.75 1316)">Calculating Satellite State </text><text fill="#FFFFFF" font-family="Arial,Arial_MSFontService,sans-serif" font-weight="400" font-size="55" transform="matrix(1 0 0 1 2611.14 1382)">at </text><text fill="#FFFFFF" font-family="Arial,Arial_MSFontService,sans-serif" font-weight="400" font-size="55" transform="matrix(1 0 0 1 2672.44 1382)">Specific Time</text><path d="M2365 1009.5C2365 1000.39 2372.39 993 2381.5 993L3228.5 993C3237.61 993 3245 1000.39 3245 1009.5L3245 1075.5C3245 1084.61 3237.61 1092 3228.5 1092L2381.5 1092C2372.39 1092 2365 1084.61 2365 1075.5Z" fill="#A46DA7" fill-rule="evenodd"/><text font-family="Arial,Arial_MSFontService,sans-serif" font-weight="400" font-size="55" transform="matrix(1 0 0 1 2477.28 1062)">Dilution of Precision (DOP)</text><path d="M1.35879-1.05252 129.749 164.698 127.032 166.804-1.35879 1.05252ZM136.454 153.707 142.424 183.868 114.713 170.548Z" transform="matrix(1 0 0 -1 931.5 963.368)"/><path d="M1.68592-0.334335 139.652 695.374 136.28 696.043-1.68592 0.334335ZM150.562 688.538 142.424 718.188 123.587 693.888Z" transform="matrix(1 0 0 -1 931.5 1497.69)"/><path d="M39.9999 1063.5C39.9999 1054.39 47.3875 1047 56.5005 1047L914.499 1047C923.612 1047 931 1054.39 931 1063.5L931 1129.5C931 1138.61 923.612 1146 914.499 1146L56.5005 1146C47.3875 1146 39.9999 1138.61 39.9999 1129.5Z" fill="#B72B3C" fill-rule="evenodd"/><text fill="#FFFFFF" font-family="Arial,Arial_MSFontService,sans-serif" font-weight="400" font-size="55" transform="matrix(1 0 0 1 195.708 1117)">Google Decimeter 2021</text><path d="M39.9999 1330.5C39.9999 1321.39 47.3875 1314 56.5005 1314L914.499 1314C923.612 1314 931 1321.39 931 1330.5L931 1396.5C931 1405.61 923.612 1413 914.499 1413L56.5005 1413C47.3875 1413 39.9999 1405.61 39.9999 1396.5Z" fill="#88202C" fill-rule="evenodd"/><text fill="#FFFFFF" font-family="Arial,Arial_MSFontService,sans-serif" font-weight="400" font-size="55" transform="matrix(1 0 0 1 195.708 1384)">Google Decimeter 2023</text><path d="M39.9999 1197.5C39.9999 1188.39 47.3875 1181 56.5005 1181L914.499 1181C923.612 1181 931 1188.39 931 1197.5L931 1263.5C931 1272.61 923.612 1280 914.499 1280L56.5005 1280C47.3875 1280 39.9999 1272.61 39.9999 1263.5Z" fill="#9B2533" fill-rule="evenodd"/><text fill="#FFFFFF" font-family="Arial,Arial_MSFontService,sans-serif" font-weight="400" font-size="55" transform="matrix(1 0 0 1 195.708 1250)">Google Decimeter 2022</text><path d="M39.9999 262.501C39.9999 253.388 47.3875 246 56.5005 246L914.499 246C923.612 246 931 253.388 931 262.501L931 328.499C931 337.612 923.612 344.999 914.499 344.999L56.5005 344.999C47.3875 344.999 39.9999 337.612 39.9999 328.499Z" fill="#EDB1B8" fill-rule="evenodd"/><text font-family="Arial,Arial_MSFontService,sans-serif" font-weight="400" font-size="55" transform="matrix(1 0 0 1 264.172 315)">RINEX Navigation</text><text font-family="Arial,Arial_MSFontService,sans-serif" font-weight="700" font-size="64" transform="matrix(1 0 0 1 367.297 216)">Parsers</text><path d="M39.9999 663.501C39.9999 654.388 47.3875 647 56.5005 647L914.499 647C923.612 647 931 654.388 931 663.501L931 729.498C931 738.611 923.612 745.999 914.499 745.999L56.5005 745.999C47.3875 745.999 39.9999 738.611 39.9999 729.498Z" fill="#D75564" fill-rule="evenodd"/><text font-family="Arial,Arial_MSFontService,sans-serif" font-weight="400" font-size="55" transform="matrix(1 0 0 1 253 716)">SP3 Precise Orbits</text><path d="M39.9999 395.501C39.9999 386.388 47.3875 379 56.5005 379L914.499 379C923.612 379 931 386.388 931 395.501L931 461.499C931 470.612 923.612 477.999 914.499 477.999L56.5005 477.999C47.3875 477.999 39.9999 470.612 39.9999 461.499Z" fill="#E696A0" fill-rule="evenodd"/><text font-family="Arial,Arial_MSFontService,sans-serif" font-weight="400" font-size="55" transform="matrix(1 0 0 1 245.552 449)">RINEX Observation</text><path d="M39.9999 796.501C39.9999 787.388 47.3875 780 56.5005 780L914.499 780C923.612 780 931 787.388 931 796.501L931 862.498C931 871.611 923.612 878.999 914.499 878.999L56.5005 878.999C47.3875 878.999 39.9999 871.611 39.9999 862.498Z" fill="#D03446" fill-rule="evenodd"/><text font-family="Arial,Arial_MSFontService,sans-serif" font-weight="400" font-size="55" transform="matrix(1 0 0 1 239.537 850)">CLK Clock Products</text><path d="M39.9999 529.501C39.9999 520.387 47.3875 513 56.5005 513L914.499 513C923.612 513 931 520.387 931 529.501L931 595.498C931 604.611 923.612 611.999 914.499 611.999L56.5005 611.999C47.3875 611.999 39.9999 604.611 39.9999 595.498Z" fill="#DF7783" fill-rule="evenodd"/><text font-family="Arial,Arial_MSFontService,sans-serif" font-weight="400" font-size="55" transform="matrix(1 0 0 1 405.682 582)">NMEA</text><path d="M39.9999 1464.5C39.9999 1455.39 47.3875 1448 56.5005 1448L914.499 1448C923.612 1448 931 1455.39 931 1464.5L931 1530.5C931 1539.61 923.612 1547 914.499 1547L56.5005 1547C47.3875 1547 39.9999 1539.61 39.9999 1530.5Z" fill="#6D1923" fill-rule="evenodd"/><text fill="#FFFFFF" font-family="Arial,Arial_MSFontService,sans-serif" font-weight="400" font-size="55" transform="matrix(1 0 0 1 199.719 1518)">TU Chemnitz </text><text fill="#FFFFFF" font-family="Arial,Arial_MSFontService,sans-serif" font-weight="400" font-size="55" transform="matrix(1 0 0 1 535.448 1518)">SmartLoc</text><path d="M39.9999 930.501C39.9999 921.388 47.3875 914 56.5005 914L914.499 914C923.612 914 931 921.388 931 930.501L931 996.498C931 1005.61 923.612 1013 914.499 1013L56.5005 1013C47.3875 1013 39.9999 1005.61 39.9999 996.498Z" fill="#C42E40" fill-rule="evenodd"/><text font-family="Arial,Arial_MSFontService,sans-serif" font-weight="400" font-size="55" transform="matrix(1 0 0 1 139.276 983)">Android Raw Measurements</text></g></svg>